<svg xmlns="http://www.w3.org/2000/svg" viewBox="0 0 141 141" style="enable-background:new 0 0 141 141;" xml:space="preserve"><path d="M70.5,140.5c-18.7,0-36.3-7.3-49.5-20.5S0.5,89.2,0.5,70.5C0.5,51.8,7.8,34.2,21,21S51.8,0.5,70.5,0.5 c18.7,0,36.3,7.3,49.5,20.5s20.5,30.8,20.5,49.5s-7.3,36.3-20.5,49.5S89.2,140.5,70.5,140.5z M70.5,2.5c-18.2,0-35.2,7.1-48.1,19.9 S2.5,52.3,2.5,70.5c0,18.2,7.1,35.2,19.9,48.1c12.8,12.8,29.9,19.9,48.1,19.9s35.2-7.1,48.1-19.9s19.9-29.9,19.9-48.1 s-7.1-35.2-19.9-48.1C105.7,9.6,88.7,2.5,70.5,2.5z M70.5,115.1c-24.6,0-44.6-20-44.6-44.6c0-24.6,20-44.6,44.6-44.6 s44.6,20,44.6,44.6C115.1,95.1,95.1,115.1,70.5,115.1z M70.5,28C47.1,28,28,47.1,28,70.5C28,93.9,47.1,113,70.5,113 c23.4,0,42.5-19.1,42.5-42.5C113,47.1,93.9,28,70.5,28z M65,130.1l0.1-1c-1.2-0.2-2-0.2-2.5,0.1c-0.5,0.3-0.8,0.8-0.9,1.5 c-0.1,1.2,0.5,1.9,1.9,2c0.2,0,0.4,0,0.5,0c0.1,0,0.2,0,0.3-0.1c0.1-0.1,0.2-0.1,0.2-0.3C64.8,132.2,64.9,131.4,65,130.1z  M65.3,127.5l0.1-1.2c0.1-1.2,0.1-1.9,0-2.1c-0.1-0.1-0.2-0.2-0.3-0.3c0,0,0,0-0.1-0.1c-0.1,0-0.1-0.1-0.1-0.1c0,0-0.1,0-0.1-0.1 c0,0-0.1-0.1-0.1-0.1c0,0-0.1-0.1-0.1-0.1c0,0,0-0.1,0-0.2c0-0.1,0-0.1,0-0.2c0-0.3,0.3-0.5,0.7-0.6c0.4-0.1,1.1,0,2,0.1 c0.3,0,0.6,0.1,0.7,0.1c0.1,0,0.3,0,0.6,0.1c0.2,0,0.4,0.1,0.5,0.1c0.1,0.1,0.2,0.1,0.4,0.2c0.1,0.1,0.2,0.2,0.3,0.3 c0,0.1,0.1,0.2,0,0.4c0,0.1-0.1,0.3-0.1,0.3c-0.1,0.1-0.2,0.1-0.2,0.2c-0.1,0-0.2,0.1-0.3,0.1c-0.2,0.1-0.3,0.1-0.4,0.2 c-0.2,0.2-0.4,1.7-0.7,4.5c-0.2,2.2-0.3,3.5-0.2,3.7c0,0.1,0.2,0.2,0.4,0.3l0.1,0c0.1,0,0.1,0,0.1,0.1c0,0,0,0,0.1,0.1 c0,0,0.1,0.1,0.1,0.1c0,0,0,0.1,0.1,0.1c0,0,0,0.1,0.1,0.1c0,0,0,0.1,0,0.1c0,0.1,0,0.1,0,0.2c-0.1,0.5-0.5,0.7-1.4,0.6 c-0.2,0-0.5-0.1-0.8-0.1c-0.4-0.1-0.7-0.1-0.8-0.1c-0.1,0-0.2,0-0.3,0c-0.1,0-0.2,0-0.4,0c-0.2,0-0.3,0-0.5,0 c-0.4,0-0.8-0.1-1.1-0.1c-0.4,0-0.6,0-0.8-0.1c-2.6-0.3-3.8-1.5-3.6-3.6c0.1-1.1,0.6-2,1.4-2.6c0.8-0.6,1.9-0.8,3.3-0.6 C64.1,127.3,64.7,127.4,65.3,127.5z M52.8,125.1l-2-0.7c-0.2-0.1-0.3,0-0.4,0.1c-0.2,0.5-0.2,1,0,1.3c0.2,0.3,0.4,0.6,0.8,0.7 c0.3,0.1,0.7,0.1,1-0.2c0.3-0.2,0.6-0.6,0.7-1c0-0.1,0-0.1,0-0.1c0,0,0-0.1,0-0.1c0,0,0,0,0-0.1c0,0,0,0,0,0 C53,125.1,53,125.1,52.8,125.1L52.8,125.1z M49.3,122.7l3.7,1.3c0.2,0.1,0.3,0.1,0.3,0.1c0,0,0.1-0.1,0.1-0.2c0.2-0.5,0.1-1-0.1-1.5 c-0.3-0.5-0.7-0.9-1.2-1.1c-0.5-0.2-1-0.2-1.7-0.1c-0.3,0-0.6,0-0.7,0c-0.1,0-0.2-0.1-0.3-0.3c-0.1-0.1-0.1-0.3,0-0.4 c0.1-0.3,0.4-0.6,1-0.8c0.9-0.4,1.9-0.3,3,0c1.2,0.4,2,1.1,2.5,2.1c0.5,1,0.5,2.1,0.1,3.3c-0.4,1.2-1.1,2.1-2.1,2.6 c-1,0.5-2.1,0.6-3.3,0.2c-1.1-0.4-1.9-1-2.3-1.8c-0.4-0.8-0.5-1.7-0.2-2.5c0.1-0.2,0.2-0.4,0.2-0.6c0.1-0.1,0.2-0.2,0.3-0.2 c0.1,0,0.2,0,0.3,0C49.1,122.6,49.2,122.6,49.3,122.7z M43.9,118.4l-2.3,3.7l0.8,0.5c0.1,0.1,0.2,0.2,0.2,0.2c0,0.1,0,0.2-0.1,0.3 l-0.1,0.2c-0.1,0.1-0.2,0.2-0.3,0.3c-0.1,0-0.3,0.1-0.6,0.1l-0.9,0.1c-0.1,0-0.2,0-0.4,0c-0.2,0-0.4,0-0.4,0c-0.1,0-0.2,0-0.4,0 c-0.2,0-0.3,0-0.4,0c-0.1,0-0.2,0-0.3,0c-0.1,0-0.2,0-0.3-0.1c-0.1,0-0.2-0.1-0.3-0.1c-0.1-0.1-0.2-0.2-0.2-0.2c0-0.1,0-0.1,0-0.2 c0-0.1,0.1-0.1,0.2-0.3l0.7-1.1l-1.7-1c-0.2-0.1-0.2-0.2-0.2-0.3c0-0.1,0-0.2,0.1-0.3c0.2-0.3,0.3-0.4,0.4-0.5 c0.1-0.1,0.2-0.1,0.2-0.1c0,0,0.1,0.1,0.3,0.2l1.6,1l1.9-3.2c0.3-0.5,0.5-0.9,0.5-1.2c0-0.3-0.1-0.5-0.4-0.7 c-0.2-0.1-0.5-0.2-0.8-0.2c-0.3,0-0.4-0.1-0.6-0.1c-0.1-0.1-0.2-0.2-0.2-0.3c0-0.1,0-0.2,0-0.4c0.2-0.3,0.6-0.5,1.3-0.5 c0.6,0,1.3,0.2,1.9,0.6c0.6,0.3,0.9,0.7,1.1,1.1C44.6,116.5,44.5,117.3,43.9,118.4z M19.5,109.1l-3.4-5c-0.2-0.3-0.4-0.5-0.5-0.5 c-0.1,0-0.2-0.2-0.4-0.5c-0.1-0.2-0.1-0.5,0.2-0.9c0.2-0.4,0.6-0.7,1.2-1.1c0.5-0.3,0.8-0.3,1,0c0.1,0.1,0.1,0.2,0.1,0.3 c0,0.1,0,0.2,0,0.3c0,0.1-0.1,0.2-0.1,0.3c-0.1,0.3-0.2,0.5-0.1,0.7c0,0.4,0.4,1.1,1,2c0,0,0.1,0.1,0.1,0.2c0.1,0.1,0.1,0.2,0.2,0.2 c0,0.1,0.1,0.1,0.2,0.2c0.1,0.1,0.1,0.2,0.2,0.2c0.1,0.1,0.1,0.1,0.2,0.2c0.1,0,0.1,0.1,0.2,0.1c0.1,0,0.1,0,0.2,0 c0.3-0.1,0.8-0.3,1.5-0.9l0.6-0.4c0.2-0.1,0.3-0.2,0.3-0.3c0-0.1,0-0.2-0.1-0.4l-0.3-0.4c-0.4-0.6-0.7-0.9-0.8-1 c-0.2-0.1-0.4-0.1-0.7,0l-0.4,0.2c0,0,0,0-0.1,0c-0.1,0-0.1,0.1-0.1,0.1c0,0-0.1,0-0.1,0c-0.1,0-0.1,0-0.1,0c0,0-0.1,0-0.1,0 c-0.1,0-0.1,0-0.1,0c0,0-0.1,0-0.1-0.1c0,0-0.1-0.1-0.1-0.1c-0.2-0.2-0.1-0.5,0.1-0.8c0.2-0.3,0.7-0.7,1.5-1.2 c0.6-0.4,1.1-0.7,1.4-0.9c0.3-0.2,0.6-0.2,0.7-0.2c0.1,0,0.3,0.1,0.4,0.3c0.1,0.2,0.1,0.3,0.1,0.4c0,0.1-0.2,0.2-0.4,0.4l-0.3,0.3 c-0.1,0.1-0.2,0.2-0.2,0.4c0,0.1,0,0.3,0,0.4c0.1,0.2,0.1,0.3,0.2,0.4c0.1,0.1,0.2,0.3,0.3,0.5l0.2,0.3c0.2,0.2,0.3,0.4,0.4,0.4 c0.1,0,0.3-0.1,0.6-0.3l1.3-0.9c0.6-0.4,1-0.8,1.1-0.9c0-0.1,0-0.3,0-0.5c-0.1-0.3-0.1-0.5,0-0.6c0-0.1,0.1-0.2,0.3-0.3 c0.3-0.2,0.6-0.2,0.8,0.1c0.3,0.2,0.7,0.8,1.3,1.7c0.6,0.8,0.9,1.5,1.1,1.8c0.1,0.4,0,0.6-0.3,0.8c0,0-0.1,0.1-0.1,0.1 c0,0-0.1,0-0.1,0c0,0-0.1,0-0.1,0c0,0-0.1,0-0.1,0c-0.1,0-0.1,0-0.1,0c0,0-0.1,0-0.1,0c-0.1,0-0.1,0-0.1-0.1c0,0-0.1,0-0.1-0.1 l-0.1-0.1c-0.2-0.1-0.3-0.2-0.4-0.2c-0.3,0-1.6,0.8-3.9,2.4c-1.9,1.3-2.8,2-2.9,2.3c0,0.1,0,0.2,0,0.5c0,0,0,0,0,0.1 c0,0.1,0,0.1,0,0.1c0,0,0,0,0,0.1c0,0.1,0,0.1,0,0.1c0,0,0,0.1,0,0.1c0,0.1,0,0.1,0,0.1c0,0-0.1,0.1-0.1,0.1c0,0-0.1,0.1-0.1,0.1 c-0.2,0.1-0.4,0.1-0.7,0S19.9,109.6,19.5,109.1z M20.5,92.9l-0.6,0.2c-1.6,0.6-2.5,1.1-2.6,1.5c0,0,0,0.1,0,0.1c0,0,0,0.1,0,0.1 c0,0,0,0.1,0,0.1c0,0.1,0,0.2,0,0.3c0,0.2-0.1,0.4-0.3,0.5c-0.1,0-0.2,0-0.4,0c-0.1,0-0.2-0.1-0.3-0.1c-0.1,0-0.1-0.1-0.2-0.2 c-0.9-0.9-1.4-1.6-1.7-2.2c-0.1-0.3,0-0.5,0.2-0.7c0.1,0,0.2-0.1,0.4-0.2c0,0,0,0,0.1,0c0,0,0.1,0,0.1,0c0,0,0.1,0,0.1-0.1 c0,0,0,0,0.1,0c0,0,0,0,0-0.1c0,0,0,0,0-0.1c0-0.1-0.2-0.1-0.4-0.2l-0.2,0c-0.7-0.2-1.1-0.5-1.3-1c-0.1-0.4-0.1-0.7,0-1 c0.2-0.3,0.5-0.6,0.9-0.8c0.4-0.2,0.8-0.2,1.1-0.1c0.3,0.1,0.5,0.3,0.7,0.6c0.1,0.3,0.1,0.6-0.1,1.1C16,90.7,16,91,16.1,91.1 c0.1,0.2,0.2,0.3,0.5,0.3c0.3,0,1.1-0.2,2.2-0.7c1.1-0.4,1.6-0.7,1.7-0.9c0,0,0-0.2,0.1-0.4c0-0.2,0-0.4,0.1-0.5 c0-0.1,0.1-0.2,0.3-0.3c0.3-0.1,0.5,0,0.8,0.3c0.2,0.3,0.5,0.9,0.8,1.7c0.3,0.9,0.5,1.4,0.6,1.8c0,0.3-0.1,0.5-0.4,0.7 c-0.1,0-0.2,0.1-0.3,0c-0.1,0-0.2,0-0.2-0.1c-0.1,0-0.1-0.1-0.2-0.2l-0.2-0.2C21.5,92.5,21.1,92.6,20.5,92.9z M11.4,78.4l4.3-0.7 c1.1-0.2,1.6-0.3,1.7-0.5l0.1-0.3c0-0.1,0.1-0.2,0.1-0.3c0-0.1,0.1-0.1,0.1-0.2c0.1-0.1,0.2-0.1,0.3-0.1c0.3,0,0.5,0.1,0.7,0.4 c0.1,0.3,0.3,0.9,0.4,1.8c0.1,0.5,0.1,1,0.2,1.3c0,0.3,0,0.6-0.1,0.8c-0.1,0.2-0.2,0.3-0.4,0.4c-0.1,0-0.2,0-0.3,0 c-0.1,0-0.2-0.1-0.2-0.1c0,0-0.1-0.1-0.2-0.2l-0.2-0.2c-0.1-0.1-0.6-0.1-1.4,0l-0.6,0.1c-0.1,0-0.3,0-0.6,0.1 c-0.3,0-0.6,0.1-0.7,0.1c-0.2,0-0.4,0.1-0.6,0.1c-0.2,0-0.4,0.1-0.5,0.2c-0.1,0.1-0.2,0.1-0.3,0.2c0,0-0.1,0.2-0.1,0.3 c0,0.4-0.2,0.6-0.5,0.7c-0.3,0-0.5-0.1-0.8-0.5c-0.7-1-1-1.9-1.1-2.5c0-0.1,0-0.2,0-0.3c0-0.1,0.1-0.1,0.2-0.2S11.2,78.5,11.4,78.4z  M9,82.2c-0.3,0.1-0.7-0.1-1-0.3c-0.3-0.3-0.6-0.7-0.6-1.2c-0.1-0.5,0-0.9,0.2-1.2C7.7,79,8,78.8,8.3,78.8c0.3-0.1,0.7,0.1,1,0.3 c0.3,0.3,0.5,0.7,0.6,1.2c0.1,0.5,0,0.9-0.2,1.2C9.5,81.9,9.3,82.1,9,82.2z M13.3,67.9l0.1-2.1c0-0.2-0.1-0.3-0.2-0.3 c-0.6,0-1,0.1-1.3,0.4c-0.3,0.3-0.4,0.6-0.4,0.9c0,0.4,0.1,0.7,0.4,1c0.3,0.3,0.7,0.4,1.1,0.4c0.1,0,0.1,0,0.1,0c0,0,0.1,0,0.1,0 c0,0,0,0,0.1-0.1c0,0,0,0,0,0C13.3,68.1,13.3,68,13.3,67.9L13.3,67.9z M14.7,63.9l-0.2,3.9c0,0.2,0,0.3,0,0.4c0,0,0.1,0.1,0.2,0.1 c0.5,0,1-0.1,1.5-0.5c0.4-0.4,0.7-0.9,0.7-1.5c0-0.5-0.1-1-0.4-1.6c-0.1-0.3-0.2-0.5-0.2-0.7c0-0.1,0.1-0.3,0.2-0.4 c0.1-0.1,0.2-0.1,0.4-0.1c0.3,0,0.7,0.3,1,0.8c0.6,0.8,0.8,1.8,0.8,2.9c-0.1,1.2-0.5,2.2-1.3,3c-0.8,0.7-1.9,1.1-3.1,1 c-1.3-0.1-2.3-0.5-3.1-1.4c-0.8-0.8-1.1-1.9-1.1-3.2c0.1-1.2,0.4-2.1,1.2-2.7c0.7-0.6,1.5-0.9,2.4-0.8c0.3,0,0.5,0,0.6,0.1 s0.3,0.1,0.3,0.2c0.1,0.1,0.1,0.2,0.1,0.2C14.7,63.7,14.7,63.8,14.7,63.9z M12.5,55.7l0.5,0.1c0.1,0,0.2,0,0.2,0 c0-0.1,0-0.2-0.1-0.3c-0.2-0.4-0.4-0.7-0.5-1c-0.1-0.5-0.1-1,0.1-1.6c0.3-1.1,1-1.8,1.9-2c0.6-0.1,1.4-0.1,2.3,0.2l1.5,0.4 c1,0.3,1.5,0.4,1.7,0.3c0.1,0,0.2-0.1,0.3-0.2c0.2-0.3,0.5-0.4,0.7-0.3c0.2,0,0.3,0.1,0.4,0.3c0.1,0.1,0.1,0.3,0.1,0.6 c0,0.3-0.1,0.5-0.1,0.7c0,0.2-0.1,0.5-0.2,0.8c-0.2,0.8-0.4,1.4-0.6,1.7c-0.2,0.3-0.4,0.4-0.7,0.3c-0.2-0.1-0.3-0.2-0.4-0.4 c0-0.1-0.1-0.2-0.1-0.3c0-0.1,0-0.2-0.1-0.2c-0.1-0.2-0.4-0.3-1.1-0.5L17.4,54c-1-0.3-1.8-0.4-2.2-0.3c-0.4,0.1-0.7,0.3-0.9,0.9 c-0.1,0.5,0,1,0.4,1.4c0.4,0.4,1.1,0.7,2.1,1c1.1,0.3,1.7,0.4,1.8,0.3c0.1,0,0.2-0.1,0.3-0.2c0.3-0.3,0.5-0.4,0.7-0.3 c0.2,0,0.3,0.2,0.4,0.3c0.1,0.2,0.1,0.4,0.1,0.6c0,0.3-0.1,0.5-0.1,0.6c0,0.2-0.1,0.4-0.2,0.7c0,0,0,0.1,0,0.1c0,0,0,0,0,0.1 c-0.2,0.8-0.4,1.4-0.6,1.7c-0.2,0.3-0.4,0.4-0.7,0.3c-0.2-0.1-0.3-0.2-0.4-0.4c0-0.1-0.1-0.3-0.1-0.4c0-0.1,0-0.2-0.1-0.2 c-0.1-0.2-0.6-0.4-1.4-0.6l-0.7-0.2c-0.9-0.3-1.5-0.4-1.8-0.4c-0.3-0.1-0.6,0-0.7,0c0,0-0.1,0.1-0.2,0.3c-0.1,0.2-0.2,0.3-0.3,0.4 c-0.1,0.1-0.2,0.1-0.4,0c-0.2-0.1-0.4-0.3-0.5-0.8c-0.2-1.2-0.2-2.1,0-2.8c0-0.2,0.1-0.3,0.2-0.3c0.1-0.1,0.2-0.1,0.2-0.1 C12.3,55.7,12.4,55.7,12.5,55.7z M24.7,44.7l-0.2-0.1c-0.1-0.1-0.2-0.1-0.2-0.1l0,0c0,0.1,0,0.2,0,0.3l0,0.1 c0.2,0.6,0.1,1.3-0.3,2.1c-0.5,0.9-1.2,1.4-2.2,1.6c-1,0.2-2,0-3-0.5c-1.1-0.6-1.8-1.4-2.2-2.6c-0.3-1.1-0.2-2.1,0.3-3.1 c0.2-0.3,0.5-0.7,0.9-1c0.1-0.1,0.2-0.1,0.2-0.1c0,0,0.1,0,0.1-0.1c0,0,0,0,0,0l0,0l0,0c0-0.1,0-0.1-0.2-0.2L17.7,41 c0,0-0.1,0-0.1-0.1c-0.2-0.1-0.3-0.2-0.4-0.2c-0.1-0.1-0.2-0.1-0.4-0.2c-0.1-0.1-0.3-0.1-0.4-0.1c-0.1,0-0.2,0-0.2,0.1L16,40.8 c-0.1,0.1-0.1,0.1-0.1,0.1c0,0-0.1,0-0.1,0.1c-0.1,0-0.1,0.1-0.2,0.1c0,0-0.1,0-0.2,0c-0.1,0-0.1,0-0.2-0.1 c-0.1-0.1-0.2-0.2-0.2-0.3c0-0.2-0.1-0.3-0.1-0.4s0-0.3,0-0.5c0.1-1.1,0.3-1.9,0.6-2.4c0.1-0.2,0.2-0.3,0.4-0.3c0.1,0,0.3,0,0.6,0.2 l1.3,0.7c0.2,0.1,0.4,0.2,0.6,0.4c0.3,0.2,0.6,0.4,1.1,0.6c0.5,0.3,1.2,0.6,2,1.1c1.2,0.6,2,1,2.4,1.2c0.4,0.2,0.7,0.2,0.8,0.2 c0.1,0,0.2-0.1,0.2-0.2c0.3-0.3,0.5-0.4,0.8-0.3c0.1,0.1,0.2,0.1,0.2,0.3c0,0.1,0.1,0.2,0.1,0.3c0,0.1,0,0.2,0,0.3 c-0.1,1.2-0.3,2.1-0.6,2.7c-0.1,0.1-0.1,0.2-0.2,0.2c0,0.1-0.1,0.1-0.2,0.1C25,44.9,24.9,44.8,24.7,44.7z M22.3,43.4l-1.6-0.8 c-0.2-0.1-0.4-0.2-0.6-0.3c-0.2-0.1-0.3-0.1-0.5-0.1c-0.2,0-0.4,0-0.6,0.1c-0.2,0.1-0.3,0.3-0.4,0.5c-0.2,0.5-0.3,1-0.1,1.5 c0.2,0.5,0.7,0.9,1.4,1.3c0.8,0.4,1.4,0.6,1.9,0.5c0.5-0.1,0.9-0.4,1.1-0.8c0.1-0.1,0.1-0.2,0.1-0.3c0-0.1,0-0.3,0-0.4 c0-0.2-0.1-0.4-0.2-0.6C22.8,43.7,22.6,43.6,22.3,43.4z M27.2,35.2L25,33.4c-1.4-1.2-2.3-1.9-2.5-1.9c-0.1,0-0.2,0.1-0.4,0.2 c-0.2,0.1-0.3,0.2-0.4,0.2c-0.1,0-0.3,0-0.4-0.1c-0.2-0.2-0.2-0.5-0.1-0.9c0.3-1.1,0.7-1.9,1.2-2.5c0.1-0.2,0.3-0.3,0.4-0.2 c0.1,0,0.3,0.1,0.6,0.4c0.2,0.2,0.6,0.5,1.1,1c0.5,0.4,1.2,1.1,2.1,1.8l1.2,1c1.6,1.3,2.5,2.1,2.7,2.2c0.1,0,0.1,0.1,0.2,0.1 c0,0,0.2,0,0.5-0.2c0.3-0.1,0.5-0.1,0.7,0c0.4,0.3,0.2,0.9-0.6,1.9c0,0.1-0.2,0.2-0.3,0.4c-0.5,0.6-0.9,1-1.2,1.2 c-0.3,0.2-0.6,0.2-0.8,0c-0.1-0.1-0.2-0.2-0.2-0.4c0-0.1,0-0.3,0.1-0.4c0-0.2,0.1-0.3,0-0.3C28.7,36.6,28.2,36.1,27.2,35.2z  M32.8,26.1L32.7,26c-0.2-0.1-0.3-0.1-0.5-0.2c-0.2,0-0.3,0-0.4,0.1c-0.4,0.2-0.7,0.1-0.9-0.1c-0.2-0.3-0.2-0.5,0.1-0.9 c0.2-0.3,0.7-0.8,1.4-1.3c0,0,0.1,0,0.1-0.1c0.2-0.2,0.4-0.3,0.5-0.4c0.1-0.1,0.3-0.2,0.5-0.3c0.2-0.1,0.4-0.2,0.6-0.2 c0.2,0,0.3,0.1,0.4,0.2c0.1,0.1,0.1,0.3,0,0.6c0,0,0,0.1,0,0.1c0,0,0,0.1,0,0.1c0,0,0,0,0,0.1c0,0,0,0.1,0,0.1c0,0,0.1,0.1,0.2,0.1 c0.1,0.1,0.4,0.3,1.1,0.6l1,0.6c0.6,0.3,1,0.5,1,0.4c0,0,0-0.2-0.1-0.5l-0.3-1c-0.3-1-0.5-1.6-0.6-1.7c-0.1-0.2-0.3-0.2-0.5-0.1 c-0.3,0.1-0.6,0-0.8-0.2c-0.1-0.2-0.2-0.4-0.1-0.6s0.2-0.4,0.4-0.5c0.2-0.2,0.4-0.3,0.7-0.6c0.9-0.7,1.5-0.9,1.8-0.5 c0,0,0,0.1,0.1,0.1c0,0,0,0.1,0,0.1c0,0,0,0.1,0,0.1c0,0,0,0.1,0,0.1c0,0,0,0.1,0,0.1c0,0,0,0.1-0.1,0.1c0,0,0,0.1-0.1,0.1 c0,0.1-0.1,0.1-0.1,0.1c-0.1,0.2-0.2,0.4-0.2,0.6c0,0.2,0,0.4,0.1,0.7c0.1,0.6,0.4,1.5,0.8,2.8c0.6,2.2,1,3.5,1,3.9 c0.5,2,0.1,3.4-1,4.3c-0.4,0.3-0.9,0.5-1.3,0.4c-0.4-0.1-0.7-0.3-1-0.6c-0.2-0.3-0.3-0.6-0.3-0.9c0-0.3,0.2-0.5,0.4-0.7 c0.3-0.3,0.7-0.3,1-0.2l0.2,0.1c0,0,0,0,0.1,0c0.1,0,0.1,0,0.1,0c0,0,0.1,0,0.1,0c0,0,0.1,0,0.1,0c0,0,0.1,0,0.1-0.1 c0.2-0.1,0.3-0.4,0.3-0.7c0-0.3-0.1-0.6-0.4-1c-0.3-0.4-0.9-0.9-1.8-1.3c-0.3-0.2-0.7-0.4-1.3-0.7c-0.5-0.3-0.9-0.5-1-0.5l-0.6-0.3 L32.8,26.1z M55.3,11.9c0.3-0.1,0.6,0,0.8,0.1c0.2,0.1,0.4,0.3,0.4,0.6c0,0.2,0,0.5-0.2,0.9c-0.2,0.4-0.2,0.6-0.2,0.7 c0,0.2,0.1,0.2,0.3,0.2c0.2,0,0.4-0.3,0.5-0.7c0.2-0.5,0.5-0.7,0.8-0.8c0.3-0.1,0.6,0,0.8,0.1c0.2,0.1,0.4,0.4,0.4,0.6 c0.1,0.3,0,0.5-0.1,0.8c-0.1,0.2-0.4,0.4-0.6,0.4c-0.1,0-0.3,0-0.6,0c-0.3,0-0.4,0-0.5,0c-0.3,0.1-0.4,0.2-0.4,0.3 c0,0.2,0.3,0.3,0.8,0.4c0.7,0,1,0.3,1.2,0.9c0.1,0.3,0,0.5-0.2,0.8c-0.2,0.2-0.4,0.4-0.6,0.4c-0.7,0.1-1.1-0.2-1.3-1 c-0.1-0.6-0.3-0.8-0.5-0.8c-0.1,0-0.2,0.1-0.2,0.2c0,0.1,0,0.3,0,0.5c0,0,0,0.1,0,0.2c0,0.1,0.1,0.2,0.1,0.2c0.1,0.3,0,0.5-0.2,0.8 c-0.2,0.3-0.4,0.4-0.6,0.5c-0.3,0.1-0.5,0-0.8-0.1c-0.2-0.2-0.4-0.4-0.5-0.6c-0.1-0.5,0.1-0.9,0.7-1.3c0.4-0.3,0.6-0.5,0.6-0.7 c0-0.1-0.2-0.2-0.4-0.1c-0.2,0-0.3,0.1-0.6,0.3C54.3,15.9,54.1,16,54,16c-0.3,0.1-0.5,0-0.8-0.1c-0.2-0.2-0.4-0.4-0.4-0.6 c-0.1-0.3,0-0.6,0.1-0.8c0.1-0.2,0.4-0.4,0.7-0.5c0.2,0,0.4,0,0.5,0c0.2,0.1,0.4,0.2,0.6,0.4c0.3,0.3,0.6,0.4,0.8,0.3 c0.1,0,0.2-0.1,0.1-0.3c0-0.1-0.2-0.3-0.5-0.6c-0.3-0.3-0.5-0.5-0.5-0.7c-0.1-0.3,0-0.6,0.1-0.8C54.8,12.2,55.1,12,55.3,11.9z  M82.7,11.9l-0.2,1c1.2,0.3,2,0.4,2.5,0.2c0.5-0.2,0.9-0.7,1-1.4c0.3-1.2-0.3-1.9-1.7-2.2c-0.2,0-0.4-0.1-0.5-0.1 c-0.1,0-0.2,0-0.3,0c-0.1,0-0.2,0.1-0.3,0.2C83.2,9.9,83,10.6,82.7,11.9z M82.1,14.4l-0.3,1.1c-0.3,1.2-0.3,1.9-0.3,2.1 c0,0.1,0.1,0.2,0.3,0.3c0,0,0,0,0.1,0.1c0.1,0,0.1,0.1,0.1,0.1c0,0,0.1,0,0.1,0.1c0,0,0.1,0.1,0.1,0.1c0,0,0,0.1,0.1,0.1 c0,0,0,0.1,0,0.2c0,0.1,0,0.1,0,0.2c-0.1,0.3-0.3,0.5-0.7,0.5c-0.4,0-1.1-0.1-2-0.3c-0.3-0.1-0.5-0.1-0.7-0.2 c-0.1,0-0.3-0.1-0.6-0.1c-0.2-0.1-0.4-0.1-0.5-0.2c-0.1-0.1-0.2-0.1-0.3-0.2c-0.1-0.1-0.2-0.2-0.2-0.3c0-0.1,0-0.2,0-0.4 c0-0.1,0.1-0.2,0.2-0.3c0.1-0.1,0.2-0.1,0.2-0.2c0.1,0,0.2-0.1,0.3-0.1c0.2-0.1,0.4-0.1,0.4-0.2c0.2-0.2,0.6-1.7,1.2-4.4 c0.5-2.2,0.7-3.4,0.6-3.6c0-0.1-0.1-0.2-0.3-0.3l-0.1-0.1c0,0-0.1-0.1-0.1-0.1c0,0,0,0-0.1-0.1c0,0-0.1-0.1-0.1-0.1 c0,0,0-0.1-0.1-0.1c0,0,0-0.1-0.1-0.1c0,0,0-0.1,0-0.1c0-0.1,0-0.1,0-0.2c0.1-0.5,0.6-0.7,1.5-0.5c0.2,0,0.4,0.1,0.8,0.2 c0.4,0.1,0.6,0.2,0.8,0.2c0.1,0,0.2,0,0.3,0.1c0.1,0,0.2,0,0.4,0.1c0.2,0,0.3,0.1,0.5,0.1C84.1,8,84.5,8,84.8,8.1 c0.4,0.1,0.6,0.1,0.8,0.1c2.6,0.6,3.6,1.9,3.2,4c-0.2,1.1-0.8,1.9-1.7,2.4c-0.9,0.5-2,0.6-3.3,0.3C83.3,14.8,82.8,14.6,82.1,14.4z  M94.3,18.2l1.9,0.9c0.2,0.1,0.3,0.1,0.4-0.1c0.2-0.5,0.3-1,0.1-1.3c-0.1-0.4-0.4-0.6-0.7-0.8c-0.3-0.2-0.7-0.1-1.1,0.1 c-0.4,0.2-0.6,0.5-0.8,0.9c0,0,0,0.1,0,0.1c0,0,0,0.1,0,0.1c0,0,0,0,0,0.1c0,0,0,0,0,0C94.2,18.1,94.2,18.2,94.3,18.2L94.3,18.2z  M97.5,21L94,19.3c-0.2-0.1-0.3-0.1-0.3-0.1c0,0-0.1,0.1-0.2,0.2c-0.2,0.5-0.2,1,0,1.5c0.2,0.5,0.6,0.9,1.1,1.2 c0.4,0.2,1,0.3,1.6,0.3c0.3,0,0.6,0,0.7,0.1c0.1,0.1,0.2,0.2,0.3,0.3c0.1,0.1,0.1,0.3,0,0.4c-0.1,0.3-0.5,0.5-1.1,0.7 c-1,0.2-2,0.1-3-0.3c-1.1-0.5-1.9-1.3-2.3-2.3c-0.4-1-0.3-2.1,0.2-3.3c0.5-1.2,1.3-1.9,2.4-2.3c1.1-0.4,2.2-0.4,3.3,0.2 c1.1,0.5,1.8,1.2,2.1,2.1c0.3,0.9,0.3,1.7-0.1,2.5c-0.1,0.2-0.2,0.4-0.3,0.5c-0.1,0.1-0.2,0.2-0.3,0.2c-0.1,0-0.2,0-0.3,0 C97.7,21.1,97.6,21,97.5,21z M102.5,25.8l2.7-3.4l-0.8-0.6c-0.1-0.1-0.2-0.2-0.2-0.2c0-0.1,0.1-0.2,0.1-0.3l0.2-0.2 c0.1-0.1,0.2-0.2,0.3-0.2c0.1,0,0.3,0,0.7,0l0.9,0c0.1,0,0.2,0,0.4,0c0.2,0,0.4,0,0.4,0c0.1,0,0.2,0,0.4,0c0.2,0,0.3,0,0.4,0 c0.1,0,0.2,0,0.3,0.1c0.1,0,0.2,0.1,0.3,0.1c0.1,0,0.2,0.1,0.2,0.1c0.1,0.1,0.2,0.2,0.2,0.2c0,0.1,0,0.1,0,0.2c0,0-0.1,0.1-0.2,0.3 L108,23l1.6,1.2c0.1,0.1,0.2,0.2,0.2,0.3c0,0.1,0,0.2-0.1,0.3c-0.2,0.2-0.3,0.4-0.4,0.5c-0.1,0.1-0.2,0.1-0.2,0.1 c0,0-0.1-0.1-0.3-0.2l-1.5-1.1l-2.3,3c-0.4,0.5-0.6,0.9-0.7,1.2c-0.1,0.3,0,0.5,0.3,0.7c0.2,0.1,0.4,0.2,0.8,0.3 c0.3,0,0.4,0.1,0.5,0.2c0.1,0.1,0.2,0.2,0.2,0.3c0,0.1,0,0.2-0.1,0.4c-0.2,0.3-0.7,0.4-1.3,0.3c-0.6-0.1-1.3-0.3-1.9-0.8 c-0.5-0.4-0.9-0.8-1-1.2C101.5,27.6,101.8,26.8,102.5,25.8z M125.7,37.7l2.8,5.4c0.2,0.3,0.3,0.5,0.4,0.6c0.1,0.1,0.2,0.2,0.4,0.5 c0.1,0.2,0,0.5-0.3,0.8c-0.3,0.3-0.7,0.7-1.3,1c-0.5,0.3-0.8,0.2-1-0.2c0-0.1-0.1-0.2-0.1-0.3c0-0.1,0-0.2,0.1-0.3 c0-0.1,0.1-0.2,0.2-0.3c0.1-0.3,0.2-0.5,0.2-0.7c0-0.4-0.2-1.1-0.7-2.1c0,0-0.1-0.1-0.1-0.2c-0.1-0.1-0.1-0.2-0.1-0.2 c0-0.1-0.1-0.1-0.1-0.2c0-0.1-0.1-0.2-0.2-0.2c0-0.1-0.1-0.1-0.2-0.2c-0.1-0.1-0.1-0.1-0.2-0.1c-0.1,0-0.1,0-0.2,0 c-0.3,0-0.8,0.3-1.6,0.7l-0.7,0.4c-0.2,0.1-0.3,0.2-0.4,0.3c0,0.1,0,0.2,0.1,0.4L123,43c0.3,0.6,0.6,0.9,0.7,1 c0.2,0.1,0.4,0.1,0.7,0.1l0.4-0.1c0,0,0,0,0.1,0c0.1,0,0.1,0,0.1,0c0,0,0.1,0,0.1,0c0.1,0,0.1,0,0.1,0c0,0,0.1,0,0.1,0 c0.1,0,0.1,0,0.1,0c0,0,0.1,0.1,0.1,0.1c0,0,0.1,0.1,0.1,0.1c0.1,0.3,0.1,0.5-0.2,0.8c-0.2,0.3-0.8,0.6-1.6,1 c-0.7,0.3-1.2,0.6-1.5,0.7c-0.4,0.1-0.6,0.2-0.8,0.1c-0.1,0-0.3-0.2-0.4-0.3c-0.1-0.2-0.1-0.3-0.1-0.4c0-0.1,0.2-0.2,0.4-0.4 l0.4-0.3c0.1-0.1,0.2-0.2,0.3-0.3c0.1-0.1,0.1-0.3,0-0.4c0-0.2-0.1-0.3-0.2-0.4c0-0.1-0.1-0.3-0.3-0.6l-0.1-0.3 c-0.1-0.3-0.3-0.4-0.4-0.4c-0.1,0-0.3,0-0.6,0.2l-1.4,0.7c-0.7,0.4-1.1,0.6-1.2,0.8c-0.1,0.1-0.1,0.2,0,0.5c0,0.3,0,0.5,0,0.6 c0,0.1-0.1,0.2-0.3,0.3c-0.3,0.2-0.6,0.1-0.8-0.2c-0.3-0.3-0.6-0.9-1.1-1.8c-0.5-0.9-0.8-1.5-0.9-1.9c-0.1-0.4,0-0.6,0.3-0.8 c0,0,0.1,0,0.1-0.1c0,0,0.1,0,0.1,0c0,0,0.1,0,0.1,0c0,0,0.1,0,0.1,0c0,0,0.1,0,0.1,0c0,0,0,0,0.1,0.1c0.1,0,0.1,0.1,0.1,0.1 c0,0,0.1,0,0.1,0.1l0.1,0.1c0.2,0.1,0.3,0.2,0.4,0.2c0.3,0,1.7-0.6,4.1-1.9c2-1,3-1.7,3.1-1.9c0-0.1,0.1-0.2,0-0.5c0,0,0-0.1,0-0.1 c0-0.1,0-0.1,0-0.1c0,0,0-0.1,0-0.1c0-0.1,0-0.1,0-0.1c0,0,0-0.1,0-0.1c0,0,0-0.1,0.1-0.1c0,0,0.1-0.1,0.1-0.1c0,0,0.1-0.1,0.1-0.1 c0.2-0.1,0.4-0.1,0.7,0C125.1,36.9,125.4,37.2,125.7,37.7z M123,53.7l0.6-0.2c1.7-0.5,2.6-0.9,2.8-1.2c0,0,0-0.1,0-0.1 c0,0,0-0.1,0-0.1c0,0,0-0.1,0-0.1c0-0.1,0-0.2,0-0.3c0-0.2,0.1-0.4,0.3-0.5c0.1,0,0.2,0,0.4,0c0.1,0.1,0.2,0.1,0.3,0.2 c0.1,0.1,0.1,0.1,0.2,0.2c0.8,1,1.3,1.8,1.4,2.4c0.1,0.3,0,0.5-0.3,0.7c-0.1,0-0.2,0.1-0.4,0.2c0,0-0.1,0-0.1,0c0,0-0.1,0-0.1,0 c0,0-0.1,0-0.1,0c0,0-0.1,0-0.1,0c0,0,0,0,0,0.1c0,0,0,0,0,0.1c0,0.1,0.1,0.2,0.4,0.2l0.1,0.1c0.7,0.3,1.1,0.7,1.2,1.2 c0.1,0.4,0.1,0.7-0.1,1c-0.2,0.3-0.5,0.5-1,0.7c-0.4,0.1-0.8,0.1-1.1-0.1c-0.3-0.2-0.5-0.4-0.6-0.7c-0.1-0.3,0-0.6,0.2-1 c0.1-0.3,0.2-0.5,0.1-0.6c-0.1-0.2-0.2-0.3-0.5-0.3c-0.3,0-1.1,0.1-2.3,0.4c-1.1,0.3-1.7,0.5-1.8,0.7c0,0-0.1,0.2-0.1,0.4 c0,0.2,0,0.4-0.1,0.5c-0.1,0.1-0.2,0.2-0.3,0.3c-0.3,0.1-0.5,0-0.7-0.4c-0.2-0.3-0.4-0.9-0.6-1.8c-0.2-0.9-0.4-1.5-0.4-1.8 c0-0.3,0.2-0.5,0.5-0.6c0.1,0,0.2,0,0.3,0c0.1,0,0.2,0.1,0.2,0.1c0.1,0.1,0.1,0.1,0.2,0.2l0.2,0.2C121.9,54,122.3,53.9,123,53.7z  M130.4,69.1l-4.3,0.2c-1.1,0.1-1.6,0.2-1.7,0.3l-0.1,0.3c-0.1,0.1-0.1,0.2-0.1,0.3c0,0.1-0.1,0.1-0.2,0.2c-0.1,0.1-0.2,0.1-0.3,0.1 c-0.3,0-0.5-0.1-0.6-0.5c-0.1-0.3-0.2-0.9-0.2-1.8c0-0.5,0-1,0-1.3c0-0.3,0.1-0.6,0.2-0.8c0.1-0.2,0.3-0.3,0.5-0.3 c0.1,0,0.2,0,0.3,0.1c0.1,0.1,0.2,0.1,0.2,0.1c0,0,0.1,0.1,0.2,0.3l0.2,0.2c0.1,0.1,0.5,0.2,1.4,0.2l0.6,0c0.1,0,0.3,0,0.6,0 c0.3,0,0.6,0,0.7,0c0.2,0,0.4,0,0.6-0.1c0.2,0,0.4-0.1,0.6-0.1c0.1-0.1,0.3-0.1,0.3-0.2c0,0,0.1-0.1,0.1-0.3 c0.1-0.4,0.3-0.6,0.5-0.6c0.3,0,0.5,0.2,0.7,0.6c0.5,1.1,0.8,2,0.9,2.6c0,0.1,0,0.2,0,0.3c0,0.1-0.1,0.1-0.2,0.2 C130.9,69,130.7,69,130.4,69.1z M133.3,65.6c0.3,0,0.7,0.1,1,0.4c0.3,0.3,0.5,0.7,0.5,1.3c0,0.5-0.1,0.9-0.3,1.2 c-0.2,0.3-0.5,0.5-0.9,0.5c-0.3,0-0.6-0.1-0.9-0.4c-0.3-0.3-0.5-0.7-0.5-1.3c0-0.5,0.1-0.9,0.3-1.2C132.7,65.8,133,65.6,133.3,65.6z  M127.4,79.3l-0.3,2c0,0.2,0,0.3,0.2,0.3c0.6,0.1,1,0,1.3-0.2c0.3-0.2,0.5-0.5,0.5-0.9c0.1-0.4-0.1-0.7-0.3-1 c-0.3-0.3-0.6-0.5-1.1-0.6c-0.1,0-0.1,0-0.1,0c0,0-0.1,0-0.1,0c0,0,0,0-0.1,0.1c0,0,0,0,0,0C127.4,79.1,127.4,79.2,127.4,79.3 L127.4,79.3z M125.6,83.1l0.6-3.9c0-0.2,0-0.3,0-0.4c0,0-0.1-0.1-0.2-0.1c-0.5-0.1-1,0-1.5,0.4c-0.5,0.3-0.7,0.8-0.8,1.4 c-0.1,0.5,0,1,0.2,1.7c0.1,0.3,0.1,0.5,0.1,0.7c0,0.1-0.1,0.3-0.2,0.3c-0.1,0.1-0.2,0.1-0.4,0.1c-0.3-0.1-0.6-0.3-0.9-0.9 c-0.5-0.9-0.7-1.8-0.5-3c0.2-1.2,0.8-2.2,1.6-2.8c0.9-0.6,2-0.9,3.2-0.7c1.3,0.2,2.2,0.8,2.9,1.7c0.7,0.9,0.9,2,0.7,3.2 c-0.2,1.2-0.7,2-1.4,2.5c-0.8,0.5-1.6,0.7-2.5,0.6c-0.3,0-0.4-0.1-0.6-0.1c-0.1-0.1-0.2-0.1-0.3-0.2c0-0.1-0.1-0.2-0.1-0.3 C125.6,83.4,125.6,83.3,125.6,83.1z M126.9,91.5l-0.5-0.2c-0.1-0.1-0.2,0-0.3,0c0,0.1,0,0.2,0.1,0.3c0.2,0.4,0.3,0.7,0.4,1 c0.1,0.5,0,1-0.2,1.6c-0.4,1.1-1.1,1.7-2.1,1.8c-0.6,0.1-1.4-0.1-2.2-0.4l-1.5-0.6c-0.9-0.4-1.5-0.5-1.6-0.5c-0.1,0-0.2,0.1-0.3,0.2 c-0.3,0.3-0.5,0.4-0.8,0.3c-0.2-0.1-0.3-0.2-0.3-0.3c-0.1-0.1-0.1-0.4,0-0.6c0.1-0.3,0.1-0.5,0.2-0.7c0.1-0.2,0.2-0.5,0.3-0.8 c0.3-0.8,0.6-1.4,0.8-1.6c0.2-0.3,0.5-0.3,0.7-0.2c0.2,0.1,0.3,0.2,0.4,0.4c0,0.1,0,0.3,0,0.3c0,0.1,0,0.2,0,0.2 c0,0.2,0.4,0.4,1,0.6l0.8,0.3c1,0.4,1.7,0.6,2.2,0.6c0.5,0,0.8-0.3,1-0.8c0.2-0.5,0.1-1-0.2-1.4s-1-0.8-2-1.2 c-1-0.4-1.6-0.6-1.8-0.5c-0.1,0-0.2,0.1-0.3,0.2c-0.3,0.3-0.5,0.3-0.8,0.2c-0.2-0.1-0.3-0.2-0.3-0.4c-0.1-0.2,0-0.4,0-0.6 c0.1-0.3,0.1-0.5,0.2-0.6c0.1-0.2,0.1-0.4,0.2-0.7c0,0,0-0.1,0-0.1c0,0,0,0,0-0.1c0.3-0.8,0.6-1.4,0.8-1.6c0.2-0.3,0.5-0.3,0.7-0.2 c0.2,0.1,0.3,0.2,0.3,0.4c0,0.1,0,0.3,0,0.4c0,0.1,0,0.2,0,0.2c0.1,0.2,0.5,0.4,1.3,0.8l0.7,0.3c0.9,0.3,1.5,0.6,1.8,0.6 c0.3,0.1,0.6,0.1,0.7,0c0,0,0.1-0.1,0.2-0.2c0.1-0.2,0.3-0.3,0.4-0.4c0.1-0.1,0.2,0,0.4,0c0.2,0.1,0.4,0.4,0.4,0.8 c0,1.2-0.1,2.1-0.3,2.7c-0.1,0.1-0.1,0.3-0.2,0.3c-0.1,0.1-0.2,0.1-0.2,0.1C127.1,91.6,127,91.6,126.9,91.5z M113.5,101.1l0.2,0.1 c0.1,0.1,0.2,0.1,0.2,0.1l0,0c0-0.1,0-0.2,0-0.3l0-0.1c-0.1-0.7,0-1.3,0.5-2c0.6-0.8,1.4-1.3,2.4-1.4c1-0.1,2,0.2,2.9,0.8 c1,0.7,1.7,1.6,1.9,2.8c0.2,1.1,0,2.1-0.6,3c-0.2,0.3-0.5,0.6-1,0.9c-0.1,0.1-0.2,0.1-0.2,0.1c0,0-0.1,0-0.1,0.1c0,0,0,0,0,0l0,0 l0,0c0,0.1,0,0.1,0.2,0.2l0.3,0.2c0,0,0.1,0,0.1,0.1c0.2,0.1,0.3,0.2,0.4,0.2c0.1,0.1,0.2,0.1,0.3,0.2c0.1,0.1,0.3,0.1,0.4,0.1 c0.1,0,0.2,0,0.2-0.1l0.2-0.2c0.1-0.1,0.1-0.1,0.1-0.1c0,0,0.1,0,0.1-0.1c0.1,0,0.1-0.1,0.2-0.1c0,0,0.1,0,0.2,0 c0.1,0,0.1,0,0.2,0.1c0.1,0.1,0.2,0.2,0.2,0.3c0,0.2,0,0.3,0,0.4c0,0.1,0,0.3-0.1,0.5c-0.2,1.1-0.5,1.8-0.8,2.3 c-0.1,0.2-0.3,0.3-0.4,0.3c-0.1,0-0.3-0.1-0.6-0.3l-1.2-0.8c-0.1-0.1-0.3-0.2-0.6-0.4c-0.3-0.2-0.6-0.4-1.1-0.8 c-0.5-0.3-1.1-0.8-1.9-1.3c-1.1-0.7-1.8-1.2-2.2-1.4c-0.4-0.2-0.6-0.3-0.8-0.3c-0.1,0-0.2,0.1-0.3,0.2c-0.3,0.3-0.5,0.3-0.8,0.2 c-0.1-0.1-0.2-0.2-0.2-0.3c0-0.1,0-0.2,0-0.3c0-0.1,0-0.2,0.1-0.3c0.2-1.2,0.5-2.1,0.9-2.6c0.1-0.1,0.1-0.2,0.2-0.2 c0,0,0.1-0.1,0.2-0.1C113.3,101,113.4,101,113.5,101.1z M115.9,102.7l1.5,1c0.2,0.1,0.4,0.2,0.5,0.3s0.3,0.1,0.5,0.2 c0.2,0,0.4,0,0.6-0.1c0.2-0.1,0.3-0.2,0.5-0.4c0.3-0.4,0.4-0.9,0.2-1.4c-0.1-0.5-0.6-1-1.2-1.4c-0.7-0.5-1.3-0.7-1.9-0.7 c-0.5,0-0.9,0.3-1.2,0.7c-0.1,0.1-0.1,0.2-0.2,0.3c0,0.1-0.1,0.2-0.1,0.4c0,0.2,0,0.4,0.2,0.6C115.4,102.3,115.6,102.5,115.9,102.7z  M110.1,110.3l2,2.1c1.3,1.4,2.1,2.1,2.3,2.1c0.1,0,0.2,0,0.4-0.1c0.2-0.1,0.3-0.2,0.5-0.2c0.1,0,0.2,0.1,0.4,0.2 c0.2,0.2,0.2,0.5,0,0.9c-0.4,1.1-0.9,1.9-1.4,2.4c-0.2,0.2-0.3,0.2-0.4,0.2c-0.1,0-0.3-0.2-0.6-0.4c-0.2-0.2-0.5-0.6-1-1.1 c-0.5-0.5-1.1-1.2-1.9-2.1l-1.1-1.1c-1.4-1.5-2.3-2.3-2.5-2.5c-0.1,0-0.1-0.1-0.2-0.1c0,0-0.2,0-0.5,0.1c-0.3,0.1-0.5,0-0.7-0.1 c-0.3-0.4-0.1-1,0.8-1.8c0.1-0.1,0.2-0.2,0.4-0.3c0.6-0.5,1-0.9,1.3-1.1c0.3-0.2,0.6-0.2,0.8,0.1c0.1,0.1,0.2,0.3,0.2,0.4 c0,0.1,0,0.3-0.1,0.4c-0.1,0.1-0.1,0.3-0.1,0.3C108.7,108.8,109.2,109.3,110.1,110.3z M103.5,118.8l0.2,0.1c0.2,0.1,0.3,0.2,0.5,0.2 c0.2,0,0.3,0,0.4,0c0.4-0.1,0.7-0.1,0.9,0.2c0.2,0.3,0.1,0.6-0.2,0.8c-0.3,0.3-0.8,0.7-1.5,1.1c0,0-0.1,0-0.1,0.1 c-0.2,0.1-0.4,0.3-0.6,0.3c-0.2,0.1-0.3,0.2-0.6,0.3c-0.2,0.1-0.4,0.1-0.6,0.1c-0.2,0-0.3-0.1-0.4-0.3c-0.1-0.1-0.1-0.3,0.1-0.6 c0,0,0,0,0-0.1c0,0,0-0.1,0-0.1c0,0,0,0,0-0.1c0,0,0-0.1,0-0.1c0,0-0.1-0.1-0.1-0.2c-0.1-0.1-0.4-0.3-1-0.7l-1-0.7 c-0.6-0.4-0.9-0.6-1-0.5c0,0,0,0.2,0,0.5l0.2,1c0.2,1.1,0.3,1.7,0.4,1.8c0.1,0.2,0.3,0.2,0.5,0.2c0.4-0.1,0.6,0,0.7,0.3 c0.1,0.2,0.1,0.4,0,0.6c-0.1,0.2-0.3,0.4-0.4,0.5c-0.2,0.1-0.4,0.3-0.8,0.5c-1,0.6-1.6,0.7-1.9,0.3c0,0,0-0.1-0.1-0.1 c0,0,0-0.1,0-0.1c0,0,0-0.1,0-0.1c0,0,0-0.1,0-0.1c0,0,0,0,0-0.1c0,0,0.1-0.1,0.1-0.1c0,0,0-0.1,0.1-0.1c0-0.1,0.1-0.1,0.1-0.1 c0.1-0.2,0.2-0.4,0.3-0.5c0-0.2,0-0.4,0-0.7c-0.1-0.6-0.2-1.6-0.4-2.9c-0.4-2.3-0.6-3.6-0.6-4c-0.2-2,0.2-3.4,1.4-4.1 c0.5-0.3,0.9-0.4,1.3-0.3c0.4,0.1,0.7,0.3,0.9,0.7c0.2,0.3,0.2,0.6,0.2,0.9c-0.1,0.3-0.3,0.5-0.5,0.7c-0.4,0.2-0.7,0.3-1,0.1 l-0.2-0.1c0,0,0,0-0.1,0c0,0-0.1,0-0.1,0c0,0-0.1,0-0.1,0c0,0-0.1,0-0.1,0c0,0-0.1,0-0.1,0c-0.2,0.1-0.3,0.3-0.4,0.6 c0,0.3,0.1,0.6,0.3,1c0.3,0.5,0.8,1,1.7,1.5c0.3,0.2,0.7,0.5,1.2,0.8c0.5,0.4,0.8,0.6,0.9,0.6l0.6,0.4L103.5,118.8z M83.1,129.9 c-0.3,0-0.6,0-0.8-0.2c-0.2-0.2-0.3-0.4-0.4-0.7c0-0.2,0.1-0.5,0.2-0.8c0.2-0.3,0.3-0.6,0.3-0.7c0-0.2-0.1-0.2-0.3-0.2 c-0.2,0-0.4,0.2-0.6,0.6c-0.2,0.4-0.5,0.7-0.9,0.7c-0.3,0-0.6,0-0.8-0.2c-0.2-0.2-0.3-0.4-0.4-0.7c0-0.3,0-0.5,0.2-0.7 c0.2-0.2,0.4-0.3,0.7-0.4c0.1,0,0.3,0,0.6,0.1c0.3,0.1,0.4,0.1,0.5,0.1c0.3,0,0.5-0.1,0.4-0.3c0-0.2-0.3-0.3-0.8-0.4 c-0.6-0.1-1-0.4-1.1-1c0-0.3,0.1-0.5,0.3-0.8c0.2-0.2,0.4-0.4,0.7-0.4c0.7-0.1,1.1,0.3,1.2,1.2c0.1,0.6,0.2,0.8,0.4,0.8 c0.1,0,0.2-0.1,0.2-0.2c0-0.1,0.1-0.3,0-0.5c0,0,0-0.1,0-0.2c0-0.1,0-0.2,0-0.2c0-0.3,0-0.5,0.2-0.8c0.2-0.2,0.4-0.4,0.7-0.4 c0.3,0,0.5,0,0.7,0.2c0.2,0.2,0.4,0.4,0.4,0.7c0.1,0.5-0.2,0.9-0.8,1.2c-0.5,0.2-0.7,0.4-0.7,0.6c0,0.1,0.1,0.2,0.4,0.2 c0.2,0,0.4-0.1,0.6-0.2c0.2-0.1,0.4-0.2,0.5-0.2c0.3,0,0.5,0,0.7,0.2c0.2,0.2,0.3,0.4,0.4,0.7c0,0.3,0,0.6-0.2,0.8 c-0.2,0.2-0.4,0.3-0.7,0.4c-0.2,0-0.4,0-0.5-0.1c-0.2-0.1-0.3-0.2-0.5-0.5c-0.3-0.3-0.5-0.4-0.7-0.4c-0.1,0-0.2,0.1-0.1,0.3 c0,0.1,0.2,0.4,0.4,0.6c0.3,0.3,0.4,0.5,0.4,0.7c0,0.3,0,0.6-0.2,0.8C83.6,129.8,83.4,129.9,83.1,129.9z"></path></svg>